<?xml version="1.0" encoding="iso-8859-1"?>
<!-- Generator: Adobe Illustrator 21.0.0, SVG Export Plug-In . SVG Version: 6.00 Build 0)  -->
<svg xmlns="http://www.w3.org/2000/svg" xmlns:xlink="http://www.w3.org/1999/xlink" version="1.1" id="Capa_1" x="0px" y="0px" viewBox="0 0 512 512" style="enable-background:new 0 0 512 512;" xml:space="preserve" width="512" height="512">
<g id="XMLID_4117_">
	<g>
		<g id="XMLID_4123_">
			<path id="XMLID_4124_" style="fill:#046EFF;" d="M0,176.894v269.911c0,17.196,13.927,31.187,31.046,31.187h449.908     c17.119,0,31.046-13.99,31.046-31.187V176.894l-255.865-17.358L0,176.894z"/>
		</g>
		<g id="XMLID_4121_">
			<path id="XMLID_4122_" style="fill:#2682FF;" d="M256.135,159.536L0,176.894v269.911c0,17.196,13.927,31.187,31.046,31.187     h225.088V159.536z"/>
		</g>
		<path id="XMLID_4120_" style="fill:#005FE1;" d="M512,146.15c0-25.315-20.475-45.91-45.641-45.91H212.505V79.918    c0-25.314-20.475-45.91-45.641-45.91H45.642C20.475,34.009,0,54.604,0,79.918v96.976h512V146.15z"/>
	</g>
	<g id="XMLID_4118_">
		<path id="XMLID_4119_" style="fill:#046EFF;" d="M212.505,100.24V79.918c0-25.314-20.475-45.91-45.641-45.91H45.642    C20.475,34.009,0,54.604,0,79.918v96.976h256.135V100.24H212.505z"/>
	</g>
</g>















</svg>
